<?xml version="1.0" standalone="no"?>
<!DOCTYPE svg PUBLIC "-//W3C//DTD SVG 20010904//EN"
 "http://www.w3.org/TR/2001/REC-SVG-20010904/DTD/svg10.dtd">
<svg version="1.0" xmlns="http://www.w3.org/2000/svg"
 width="360.000000pt" height="360.000000pt" viewBox="0 0 360.000000 360.000000"
 preserveAspectRatio="xMidYMid meet">
<metadata>
Created by potrace 1.11, written by Peter Selinger 2001-2013
</metadata>
<g transform="translate(0.000000,360.000000) scale(0.100000,-0.100000)"
fill="#000000" stroke="none">
<path d="M0 1800 l0 -1800 309 0 310 0 27 38 c15 20 40 54 56 75 16 20 26 42
22 49 -4 7 -3 8 5 4 13 -8 50 31 51 53 0 8 3 11 7 8 3 -4 12 -2 19 4 11 9 11
16 2 33 -10 18 -9 19 4 8 13 -10 21 -6 52 28 20 22 36 46 36 53 0 6 -8 0 -18
-16 -9 -15 -22 -25 -28 -23 -6 2 -11 -3 -10 -11 2 -26 -22 -26 -35 -1 -11 21
-11 22 4 10 14 -12 16 -11 12 9 -3 12 -9 27 -15 33 -5 5 -10 18 -10 28 0 10
-7 18 -15 18 -11 0 -15 11 -15 40 0 29 -4 40 -15 40 -13 0 -15 38 -15 280 0
242 2 280 15 280 11 0 15 12 15 45 0 25 5 45 10 45 6 0 10 -13 10 -30 0 -16 5
-30 11 -30 12 0 1 92 -13 101 -4 3 -8 14 -7 25 1 10 1 30 -1 44 -2 22 -4 20
-10 -10 -7 -32 -7 -33 -9 -7 0 16 3 36 8 45 5 10 3 63 -4 127 -7 61 -14 191
-16 290 l-4 179 -47 24 c-61 30 -122 99 -137 154 -16 59 0 212 29 268 33 64
98 122 166 146 57 21 59 22 75 75 40 134 107 238 219 342 l61 57 -16 32 c-8
18 -41 67 -72 108 -78 104 -249 359 -303 452 l-45 78 -337 0 -338 0 0 -1800z
m750 -590 c0 -5 -5 -10 -11 -10 -5 0 -7 5 -4 10 3 6 8 10 11 10 2 0 4 -4 4
-10z m10 -50 c0 -5 -2 -10 -4 -10 -3 0 -8 5 -11 10 -3 6 -1 10 4 10 6 0 11 -4
11 -10z"/>
<path d="M1514 3583 c3 -10 15 -85 26 -168 11 -82 25 -172 32 -199 10 -47 11
-48 42 -41 175 37 338 33 527 -11 20 -4 27 -1 37 21 11 24 72 360 72 398 0 16
-24 17 -371 17 -348 0 -370 -1 -365 -17z"/>
<path d="M3079 3483 c-92 -132 -210 -290 -279 -373 -25 -31 -53 -67 -63 -80
-9 -14 -28 -40 -42 -59 -14 -19 -25 -43 -25 -52 0 -10 24 -45 53 -78 102 -118
150 -221 186 -398 60 -296 48 -610 -39 -1083 -47 -254 -45 -244 -59 -295 -5
-22 -13 -68 -16 -102 -4 -51 -3 -62 8 -57 10 3 15 26 16 75 2 73 19 144 21 84
0 -24 2 -27 10 -15 8 11 9 7 4 -15 -4 -16 -11 -31 -16 -33 -4 -2 -8 -23 -8
-47 0 -24 -5 -47 -10 -50 -18 -11 0 -25 33 -25 21 0 27 -3 19 -8 -10 -7 -10
-15 -2 -36 13 -35 13 -37 -2 -34 -10 2 -12 -18 -10 -79 3 -70 1 -83 -12 -83
-16 0 -22 -47 -17 -127 2 -24 -2 -33 -13 -33 -9 0 -16 -4 -16 -9 0 -5 -7 -12
-16 -15 -13 -5 -15 -2 -11 15 4 13 2 18 -3 13 -5 -5 -7 -27 -3 -49 5 -34 7
-36 15 -16 7 21 28 21 28 0 0 -6 -5 -7 -10 -4 -6 4 -13 -7 -16 -24 -4 -17 -11
-28 -16 -25 -12 7 -4 -64 8 -74 4 -4 5 0 2 8 -3 8 1 31 9 50 12 32 13 32 7 5
-12 -59 -14 -95 -6 -95 4 0 15 -12 24 -27 10 -16 27 -40 40 -55 13 -14 44 -61
71 -102 l48 -76 314 0 315 0 0 1800 0 1800 -219 0 -219 0 -83 -117z m-219
-2290 c-11 -17 -11 -17 -6 0 3 10 6 24 7 30 0 9 2 9 5 0 3 -7 0 -20 -6 -30z
m-10 -70 c0 -21 -3 -24 -9 -14 -5 8 -7 20 -4 28 8 21 13 15 13 -14z m17 -45
c-3 -8 -6 -5 -6 6 -1 11 2 17 5 13 3 -3 4 -12 1 -19z m-20 -130 c-3 -7 -5 -2
-5 12 0 14 2 19 5 13 2 -7 2 -19 0 -25z m-27 -618 c0 -5 -5 -10 -11 -10 -5 0
-7 5 -4 10 3 6 8 10 11 10 2 0 4 -4 4 -10z"/>
<path d="M773 2288 c-92 -66 -97 -196 -9 -263 32 -25 41 -27 89 -21 45 6 57
12 81 42 23 30 25 34 8 25 -12 -6 -23 -15 -27 -20 -11 -18 -61 -22 -90 -7 -16
8 -33 12 -39 9 -6 -4 -5 1 2 10 11 13 18 14 37 5 56 -25 125 25 125 91 0 22
-4 43 -10 46 -5 3 -10 12 -10 18 0 7 14 -4 29 -23 21 -25 26 -38 19 -47 -5 -7
-7 -17 -3 -23 4 -6 1 -17 -5 -25 -15 -18 1 -20 18 -3 21 21 14 -17 -9 -46 -11
-14 -16 -26 -10 -26 6 0 20 19 32 42 42 82 9 192 -67 224 -52 22 -124 18 -161
-8z m47 -58 c0 -23 -26 -44 -45 -36 -20 7 -19 43 2 54 22 13 43 4 43 -18z"/>
<path d="M2515 2292 c-48 -23 -69 -45 -90 -95 -29 -70 -26 -74 73 -81 48 -4
101 -9 117 -11 17 -3 35 -1 42 3 14 9 25 62 14 62 -5 0 -11 10 -14 23 -6 20
-4 20 18 -5 15 -18 22 -36 19 -52 -3 -19 1 -25 22 -29 26 -5 26 -4 22 50 -3
33 -13 64 -25 81 -46 62 -132 85 -198 54z m31 -67 c7 -18 -13 -45 -33 -45 -17
0 -27 24 -19 45 7 20 45 19 52 0z"/>
<path d="M1150 2263 c0 -7 5 -15 10 -18 6 -3 10 -40 10 -80 0 -164 -117 -304
-271 -322 -27 -3 -49 -8 -49 -10 0 -3 7 -18 17 -33 61 -104 245 36 305 233 24
82 22 198 -6 225 -9 10 -16 12 -16 5z"/>
<path d="M2873 2145 c0 -22 2 -30 4 -17 2 12 2 30 0 40 -3 9 -5 -1 -4 -23z"/>
<path d="M1055 1970 c-3 -5 -1 -10 4 -10 6 0 11 5 11 10 0 6 -2 10 -4 10 -3 0
-8 -4 -11 -10z"/>
<path d="M2730 1937 c-14 -6 -27 -14 -30 -17 -15 -16 -90 -42 -151 -52 -38 -7
-69 -15 -69 -19 0 -12 88 -22 138 -16 53 7 136 43 127 56 -2 5 3 8 12 7 10 -1
17 9 20 27 4 30 -6 33 -47 14z"/>
<path d="M957 1903 c3 -7 8 -13 12 -13 4 0 15 6 24 13 15 11 14 12 -12 12 -19
0 -27 -4 -24 -12z"/>
<path d="M890 1880 c-14 -4 -42 -8 -62 -9 -44 -1 -51 -15 -10 -18 34 -3 112
17 112 28 0 10 -5 10 -40 -1z"/>
<path d="M760 1870 c0 -5 5 -10 10 -10 6 0 10 5 10 10 0 6 -4 10 -10 10 -5 0
-10 -4 -10 -10z"/>
<path d="M1931 1289 c-40 -16 -94 -34 -119 -40 -49 -11 -215 -14 -247 -4 -11
3 -1 -3 23 -14 23 -11 42 -27 42 -36 0 -12 13 -15 65 -15 36 0 65 4 65 9 0 5
24 15 54 21 69 14 196 76 196 95 0 18 9 20 -79 -16z"/>
<path d="M821 988 c-1 -9 -4 -25 -7 -35 -5 -15 -4 -15 5 -3 9 13 11 12 11 -4
0 -11 3 -17 6 -14 3 3 1 21 -5 39 -5 19 -10 26 -10 17z"/>
<path d="M2772 870 c0 -14 2 -19 5 -12 2 6 2 18 0 25 -3 6 -5 1 -5 -13z"/>
<path d="M2832 840 c0 -19 2 -27 5 -17 2 9 2 25 0 35 -3 9 -5 1 -5 -18z"/>
<path d="M2766 717 c3 -10 9 -15 12 -12 3 3 0 11 -7 18 -10 9 -11 8 -5 -6z"/>
<path d="M2737 678 c-2 -18 -2 -39 2 -45 4 -7 8 7 9 32 2 53 -4 59 -11 13z"/>
<path d="M2762 555 c0 -16 2 -22 5 -12 2 9 2 23 0 30 -3 6 -5 -1 -5 -18z"/>
<path d="M2792 520 c0 -14 2 -19 5 -12 2 6 2 18 0 25 -3 6 -5 1 -5 -13z"/>
<path d="M2737 486 c-3 -8 -2 -29 3 -47 5 -17 7 -35 5 -40 -3 -4 0 -11 6 -15
9 -5 10 3 4 32 -4 21 -7 49 -7 62 0 26 -4 28 -11 8z"/>
</g>
</svg>
